<?xml version="1.0" encoding="utf-8"?>
<!-- Generator: Adobe Illustrator 16.0.4, SVG Export Plug-In . SVG Version: 6.00 Build 0)  -->
<!DOCTYPE svg PUBLIC "-//W3C//DTD SVG 1.1//EN" "http://www.w3.org/Graphics/SVG/1.1/DTD/svg11.dtd">
<svg version="1.1" id="Ebene_1" xmlns="http://www.w3.org/2000/svg" xmlns:xlink="http://www.w3.org/1999/xlink" x="0px" y="0px"
	 width="83px" height="24px" viewBox="0 0 83 24" enable-background="new 0 0 83 24" xml:space="preserve">
<g>
	<path d="M2.223,8.341c-0.454-0.172-0.847-0.43-1.154-0.75C0.394,6.879,0.037,5.811,0,4.435V4.214
		C0.037,2.85,0.405,1.769,1.069,1.081c0.307-0.332,0.7-0.602,1.167-0.774c0.393-0.135,0.811-0.209,1.265-0.209
		c0.639,0,1.216,0.086,1.732,0.283C5.479,0.467,5.602,0.553,5.835,0.7l-0.859,1.13C4.938,1.818,4.558,1.523,3.501,1.523
		c-0.614,0-1.056,0.172-1.4,0.528C1.659,2.531,1.438,3.292,1.425,4.337c0.012,1.056,0.233,1.806,0.675,2.272
		c0.332,0.344,0.774,0.516,1.4,0.516c1.081,0,1.339-0.233,1.671-0.43l0.762,0.958c0,0-0.197,0.246-0.614,0.479
		C4.828,8.403,4.202,8.55,3.501,8.55C3.022,8.55,2.604,8.477,2.223,8.341z"/>
	<path d="M20.268,8.464L19.605,6.45h-2.568l-0.675,2.039l-1.499-0.037l2.789-8.316h1.339l2.789,8.329H20.268z M18.327,2.654
		l-0.811,2.371h1.609L18.327,2.654z"/>
	<path d="M30.672,0.135h1.536l3.046,5.651V0.135h1.425v8.329H35.07l-2.973-5.528v5.528h-1.425V0.135z"/>
	<path d="M52.267,0.135l-2.396,8.329h-1.474l-2.604-8.329h1.486l1.83,5.737l1.671-5.737H52.267z"/>
	<path d="M66.331,8.464L65.668,6.45H63.1l-0.675,2.039l-1.499-0.037l2.789-8.316h1.339l2.789,8.329H66.331z M64.39,2.654
		L63.58,5.024h1.609L64.39,2.654z"/>
	<path d="M77.227,7.506l0.995-0.958l0.417,0.258c0.381,0.233,0.786,0.344,1.229,0.344c0.467,0,0.762-0.099,0.946-0.308
		c0.332-0.332,0.356-0.995-0.037-1.314c-0.258-0.221-0.663-0.406-1.228-0.553c-0.774-0.221-1.339-0.479-1.769-0.823
		c-0.504-0.43-0.787-1.032-0.787-1.683c0-0.688,0.234-1.302,0.639-1.732C78.099,0.258,78.787,0,79.609,0
		c1.696,0,2.494,0.909,2.531,0.958l-1.093,0.909c-0.024-0.012-0.099-0.098-0.307-0.209c-0.283-0.147-0.688-0.233-1.13-0.233
		c-0.467,0-0.762,0.098-0.946,0.307c-0.332,0.332-0.356,0.995,0.025,1.327c0.258,0.208,0.676,0.381,1.252,0.54
		c0.762,0.222,1.327,0.479,1.745,0.824c0.516,0.43,0.798,1.02,0.798,1.683c0,0.688-0.234,1.302-0.639,1.72
		c-0.442,0.491-1.155,0.75-1.978,0.75C78.172,8.575,77.227,7.518,77.227,7.506z"/>
</g>
<path d="M61.97,15.478h4.828v1.425h-3.403v2.199h2.973v1.425h-2.973l0.013,3.28h-1.425L61.97,15.478z"/>
<path d="M76.477,15.478h1.585l1.707,4.054l1.573-4.054H83v8.329h-1.425v-4.938l-1.769,4.508l-1.904-4.607v5.037h-1.425V15.478z"/>
</svg>
