<?xml version="1.0" encoding="utf-8"?>
<!-- Generator: Adobe Illustrator 16.0.4, SVG Export Plug-In . SVG Version: 6.00 Build 0)  -->
<!DOCTYPE svg PUBLIC "-//W3C//DTD SVG 1.1//EN" "http://www.w3.org/Graphics/SVG/1.1/DTD/svg11.dtd">
<svg version="1.1" id="Ebene_1" xmlns="http://www.w3.org/2000/svg" xmlns:xlink="http://www.w3.org/1999/xlink" x="0px" y="0px"
	 width="375px" height="177px" viewBox="0 0 375 177" enable-background="new 0 0 375 177" xml:space="preserve">
<g>
	<g>
		<g>
			<path fill="#FFEF42" d="M242.037,114.855c-3.321-34.343-29.425-47.438-43.495-74.625c-4.258-8.113-5.108-17.659-4.728-26.661
				c0.547-13.19-0.82-17.539-14.584-9.593c-19.389,11.181-28.357,33.618-25.812,55.332c4.115,35.154,42.284,52.942,45.613,86.759
				c0.915,8.834-0.518,17.762-2.45,26.363c-2.342,10.352,18.979-1.312,20.533-2.312C235.593,158.437,244.15,136.111,242.037,114.855
				C241.243,106.643,242.891,123.43,242.037,114.855z"/>
			<path fill="#FFEF42" d="M170.099,137.336c-4.137-9.04-12.289-14.165-16.74-22.74c-3.208-6.099,0.483-23.784-11.267-14.916
				c-9.838,7.479-11.598,21.118-7.091,32.1c5.362,13.061,19.803,20.601,18.595,36.3c-0.833,9.816,4.999,9.146,11.288,3.504
				C174.542,162.905,175.257,148.61,170.099,137.336C168.567,133.989,171.777,140.994,170.099,137.336z"/>
		</g>
	</g>
	<g>
		<g>
			<path fill="#FFEF42" d="M374.686,114.855c-3.322-34.343-29.427-47.438-43.497-74.625c-4.258-8.113-5.106-17.659-4.728-26.661
				c0.549-13.19-0.818-17.539-14.583-9.593c-19.388,11.181-28.355,33.618-25.812,55.332c4.116,35.154,42.284,52.942,45.614,86.759
				c0.914,8.834-0.517,17.762-2.449,26.363c-2.342,10.352,18.979-1.312,20.53-2.312
				C368.241,158.437,376.798,136.111,374.686,114.855C373.892,106.643,375.54,123.43,374.686,114.855z"/>
			<path fill="#FFEF42" d="M302.747,137.336c-4.136-9.04-12.29-14.165-16.74-22.74c-3.209-6.099,0.483-23.784-11.266-14.916
				c-9.84,7.479-11.599,21.118-7.092,32.1c5.361,13.061,19.803,20.601,18.595,36.3c-0.833,9.816,5,9.146,11.288,3.504
				C307.189,162.905,307.905,148.61,302.747,137.336C301.215,133.989,304.425,140.994,302.747,137.336z"/>
		</g>
	</g>
	<g>
		<g>
			<path fill="#FFEF42" d="M109.389,114.855c-3.322-34.343-29.426-47.438-43.497-74.625c-4.257-8.113-5.107-17.659-4.727-26.661
				c0.548-13.19-0.82-17.539-14.583-9.593C27.194,15.157,18.226,37.594,20.771,59.308c4.115,35.154,42.283,52.942,45.613,86.759
				c0.915,8.834-0.517,17.762-2.45,26.363c-2.342,10.352,18.979-1.312,20.532-2.312
				C102.944,158.437,111.502,136.111,109.389,114.855C108.595,106.643,110.243,123.43,109.389,114.855z"/>
			<path fill="#FFEF42" d="M37.451,137.336c-4.137-9.04-12.289-14.165-16.741-22.74c-3.208-6.099,0.484-23.784-11.266-14.916
				c-9.838,7.479-11.598,21.118-7.091,32.1c5.362,13.061,19.803,20.601,18.595,36.3c-0.832,9.816,4.999,9.146,11.288,3.504
				C41.893,162.905,42.609,148.61,37.451,137.336C35.919,133.989,39.129,140.994,37.451,137.336z"/>
		</g>
	</g>
</g>
</svg>
