<?xml version="1.0" encoding="utf-8"?>
<!-- Generator: Adobe Illustrator 16.0.4, SVG Export Plug-In . SVG Version: 6.00 Build 0)  -->
<!DOCTYPE svg PUBLIC "-//W3C//DTD SVG 1.1//EN" "http://www.w3.org/Graphics/SVG/1.1/DTD/svg11.dtd">
<svg version="1.1" id="Ebene_1" xmlns="http://www.w3.org/2000/svg" xmlns:xlink="http://www.w3.org/1999/xlink" x="0px" y="0px"
	 width="13px" height="20px" viewBox="0 0 13 20" enable-background="new 0 0 13 20" xml:space="preserve">
<g>
	<g>
		<path d="M12.384,13.002c-0.376-3.888-3.331-5.37-4.924-8.448C6.978,3.636,6.882,2.555,6.925,1.536
			C6.987,0.043,6.832-0.449,5.274,0.45c-2.195,1.266-3.21,3.806-2.922,6.264c0.466,3.98,4.787,5.993,5.164,9.821
			c0.103,1-0.059,2.011-0.278,2.984c-0.265,1.172,2.149-0.148,2.325-0.261C11.655,17.936,12.623,15.408,12.384,13.002
			C12.294,12.072,12.48,13.972,12.384,13.002z"/>
		<path d="M4.24,15.547c-0.468-1.023-1.391-1.604-1.895-2.575c-0.363-0.69,0.055-2.692-1.275-1.688
			c-1.114,0.847-1.313,2.391-0.803,3.634c0.607,1.479,2.242,2.332,2.105,4.11c-0.094,1.111,0.566,1.035,1.278,0.396
			C4.743,18.442,4.824,16.823,4.24,15.547C4.067,15.168,4.43,15.961,4.24,15.547z"/>
	</g>
</g>
</svg>
