<?xml version="1.0" encoding="UTF-8" standalone="no"?>
<!DOCTYPE svg PUBLIC "-//W3C//DTD SVG 1.1//EN" "http://www.w3.org/Graphics/SVG/1.1/DTD/svg11.dtd">
<svg width="100%" height="100%" viewBox="0 0 501 501" version="1.1"
	xmlns="http://www.w3.org/2000/svg"
	xmlns:xlink="http://www.w3.org/1999/xlink" xml:space="preserve"
	xmlns:serif="http://www.serif.com/" style="fill-rule:evenodd;clip-rule:evenodd;stroke-linejoin:round;stroke-miterlimit:2;">
	<rect id="CFM-Logo-Grid-Colored-Animated" x="0.55" y="0.447" width="500" height="500" style="fill:none;"/>
	<clipPath id="_clip1">
		<rect x="0.55" y="0.447" width="500" height="500"/>
	</clipPath>
	<g clip-path="url(#_clip1)">
		<g id="dots-gradient" style="fill:url(#gradient_01);fill-rule:nonzero;">
			<path d="M475.55,450.447c13.807,0 25,11.192 25,25c0,13.808 -11.193,25 -25,25c-13.808,0 -25,-11.192 -25,-25c0,-13.808 11.192,-25 25,-25"/>
			<path d="M385.55,450.447c13.807,0 25,11.192 25,25c0,13.808 -11.193,25 -25,25c-13.808,0 -25,-11.192 -25,-25c0,-13.808 11.192,-25 25,-25"/>
			<path d="M295.55,450.447c13.807,0 25,11.192 25,25c0,13.808 -11.193,25 -25,25c-13.808,0 -25,-11.192 -25,-25c0,-13.808 11.192,-25 25,-25"/>
			<path d="M205.55,450.447c13.807,0 25,11.192 25,25c0,13.808 -11.193,25 -25,25c-13.808,0 -25,-11.192 -25,-25c0,-13.808 11.192,-25 25,-25"/>
			<path d="M115.55,450.447c13.806,0 25,11.192 25,25c0,13.808 -11.194,25 -25,25c-13.808,0 -25,-11.192 -25,-25c0,-13.808 11.192,-25 25,-25"/>
			<path d="M25.55,450.447c13.807,0 25,11.192 25,25c0,13.808 -11.193,25 -25,25c-13.808,0 -25,-11.192 -25,-25c0,-13.808 11.192,-25 25,-25"/>
			<path d="M385.55,360.447c13.807,0 25,11.192 25,25c0,13.808 -11.193,25 -25,25c-13.808,0 -25,-11.192 -25,-25c0,-13.808 11.192,-25 25,-25"/>
			<path d="M295.55,360.447c13.807,0 25,11.192 25,25c0,13.808 -11.193,25 -25,25c-13.808,0 -25,-11.192 -25,-25c0,-13.808 11.192,-25 25,-25"/>
			<path d="M205.55,360.447c13.807,0 25,11.192 25,25c0,13.808 -11.193,25 -25,25c-13.808,0 -25,-11.192 -25,-25c0,-13.808 11.192,-25 25,-25"/>
			<path d="M25.55,360.447c13.807,0 25,11.192 25,25c0,13.808 -11.193,25 -25,25c-13.808,0 -25,-11.192 -25,-25c0,-13.808 11.192,-25 25,-25"/>
			<path d="M385.55,270.447c13.807,0 25,11.192 25,25c0,13.808 -11.193,25 -25,25c-13.808,0 -25,-11.192 -25,-25c0,-13.808 11.192,-25 25,-25"/>
			<path d="M205.55,270.447c13.807,0 25,11.192 25,25c0,13.808 -11.193,25 -25,25c-13.808,0 -25,-11.192 -25,-25c0,-13.808 11.192,-25 25,-25"/>
			<path d="M205.55,180.447c13.807,0 25,11.192 25,25c0,13.808 -11.193,25 -25,25c-13.808,0 -25,-11.192 -25,-25c0,-13.808 11.192,-25 25,-25"/>
		</g>
		<g id="dots-black" style="fill:#222;fill-rule:nonzero;">
			<path d="M475.55,360.447c13.807,0 25,11.192 25,25c0,13.808 -11.193,25 -25,25c-13.808,0 -25,-11.192 -25,-25c0,-13.808 11.192,-25 25,-25"/>
			<path d="M115.55,360.447c13.806,0 25,11.192 25,25c0,13.808 -11.194,25 -25,25c-13.808,0 -25,-11.192 -25,-25c0,-13.808 11.192,-25 25,-25"/>
			<path d="M475.55,270.447c13.807,0 25,11.192 25,25c0,13.808 -11.193,25 -25,25c-13.808,0 -25,-11.192 -25,-25c0,-13.808 11.192,-25 25,-25"/>
			<path d="M295.55,270.447c13.807,0 25,11.192 25,25c0,13.808 -11.193,25 -25,25c-13.808,0 -25,-11.192 -25,-25c0,-13.808 11.192,-25 25,-25"/>
			<path d="M115.55,270.447c13.806,0 25,11.192 25,25c0,13.808 -11.194,25 -25,25c-13.808,0 -25,-11.192 -25,-25c0,-13.808 11.192,-25 25,-25"/>
			<path d="M25.55,270.447c13.807,0 25,11.192 25,25c0,13.808 -11.193,25 -25,25c-13.808,0 -25,-11.192 -25,-25c0,-13.808 11.192,-25 25,-25"/>
			<path d="M475.55,180.447c13.807,0 25,11.192 25,25c0,13.808 -11.193,25 -25,25c-13.808,0 -25,-11.192 -25,-25c0,-13.808 11.192,-25 25,-25"/>
			<path d="M385.55,180.447c13.807,0 25,11.192 25,25c0,13.808 -11.193,25 -25,25c-13.808,0 -25,-11.192 -25,-25c0,-13.808 11.192,-25 25,-25"/>
			<path d="M295.55,180.447c13.807,0 25,11.192 25,25c0,13.808 -11.193,25 -25,25c-13.808,0 -25,-11.192 -25,-25c0,-13.808 11.192,-25 25,-25"/>
			<path d="M115.55,180.447c13.806,0 25,11.192 25,25c0,13.808 -11.194,25 -25,25c-13.808,0 -25,-11.192 -25,-25c0,-13.808 11.192,-25 25,-25"/>
			<path d="M25.55,180.447c13.807,0 25,11.192 25,25c0,13.808 -11.193,25 -25,25c-13.808,0 -25,-11.192 -25,-25c0,-13.808 11.192,-25 25,-25"/>
			<path d="M475.55,90.447c13.807,0 25,11.192 25,25c0,13.808 -11.193,25 -25,25c-13.808,0 -25,-11.192 -25,-25c0,-13.808 11.192,-25 25,-25"/>
			<path d="M385.55,90.447c13.807,0 25,11.192 25,25c0,13.808 -11.193,25 -25,25c-13.808,0 -25,-11.192 -25,-25c0,-13.808 11.192,-25 25,-25"/>
			<path d="M295.55,90.447c13.807,0 25,11.192 25,25c0,13.808 -11.193,25 -25,25c-13.808,0 -25,-11.192 -25,-25c0,-13.808 11.192,-25 25,-25"/>
			<path d="M205.55,90.447c13.807,0 25,11.192 25,25c0,13.808 -11.193,25 -25,25c-13.808,0 -25,-11.192 -25,-25c0,-13.808 11.192,-25 25,-25"/>
			<path d="M115.55,90.447c13.806,0 25,11.192 25,25c0,13.808 -11.194,25 -25,25c-13.808,0 -25,-11.192 -25,-25c0,-13.808 11.192,-25 25,-25"/>
			<path d="M25.55,90.447c13.807,0 25,11.192 25,25c0,13.808 -11.193,25 -25,25c-13.808,0 -25,-11.192 -25,-25c0,-13.808 11.192,-25 25,-25"/>
			<path d="M475.55,0.447c13.807,0 25,11.192 25,25c0,13.808 -11.193,25 -25,25c-13.808,0 -25,-11.192 -25,-25c0,-13.808 11.192,-25 25,-25"/>
			<path d="M385.55,0.447c13.807,0 25,11.192 25,25c0,13.808 -11.193,25 -25,25c-13.808,0 -25,-11.192 -25,-25c0,-13.808 11.192,-25 25,-25"/>
			<path d="M295.55,0.447c13.807,0 25,11.192 25,25c0,13.808 -11.193,25 -25,25c-13.808,0 -25,-11.192 -25,-25c0,-13.808 11.192,-25 25,-25"/>
			<path d="M205.55,0.447c13.807,0 25,11.192 25,25c0,13.808 -11.193,25 -25,25c-13.808,0 -25,-11.192 -25,-25c0,-13.808 11.192,-25 25,-25"/>
			<path d="M115.55,0.447c13.807,0 25,11.192 25,25c0,13.808 -11.193,25 -25,25c-13.808,0 -25,-11.192 -25,-25c0,-13.808 11.192,-25 25,-25"/>
			<path d="M25.55,0.447c13.807,0 25,11.192 25,25c0,13.808 -11.193,25 -25,25c-13.808,0 -25,-11.192 -25,-25c0,-13.808 11.192,-25 25,-25"/>
		</g>
	</g>
	<defs>
		<linearGradient id="gradient_01" x1="0" y1="0" x2="1" y2="0" gradientUnits="userSpaceOnUse" gradientTransform="matrix(1.95958e-14,-320.024,320.024,1.95958e-14,270.55,500.471)">
			<stop offset="0" stop-color="#a0c1cc" stop-opacity="1"></stop>
      <stop offset="1" stop-color="#3A6579" stop-opacity="1">
        <animate attributeName="stop-color" values="#3A6579;#f7f7f7;#3A6579" dur="3s" repeatCount="indefinite"></animate>
      </stop>
		</linearGradient>
	</defs>
</svg>
