<?xml version="1.0" encoding="UTF-8" standalone="no"?><!DOCTYPE svg PUBLIC "-//W3C//DTD SVG 1.1//EN" "http://www.w3.org/Graphics/SVG/1.1/DTD/svg11.dtd"><svg width="100%" height="100%" viewBox="0 0 497 141" version="1.1" xmlns="http://www.w3.org/2000/svg" xmlns:xlink="http://www.w3.org/1999/xlink" xml:space="preserve" xmlns:serif="http://www.serif.com/" style="fill-rule:evenodd;clip-rule:evenodd;stroke-linejoin:round;stroke-miterlimit:2;"><rect id="CFM-Logo-Wordmark-Black" x="0" y="0.95" width="497" height="140" style="fill:none;"/><clipPath id="_clip1"><rect x="0" y="0.95" width="497" height="140"/></clipPath><g clip-path="url(#_clip1)"><path d="M43.784,18.649l-10.405,0c-0.19,-1.346 -0.578,-2.546 -1.164,-3.599c-0.586,-1.053 -1.339,-1.952 -2.257,-2.696c-0.919,-0.745 -1.976,-1.315 -3.172,-1.711c-1.196,-0.396 -2.49,-0.594 -3.884,-0.594c-2.518,0 -4.712,0.622 -6.581,1.865c-1.869,1.243 -3.318,3.049 -4.347,5.417c-1.03,2.367 -1.545,5.238 -1.545,8.612c0,3.468 0.519,6.382 1.556,8.742c1.038,2.36 2.491,4.142 4.36,5.346c1.869,1.203 4.031,1.805 6.486,1.805c1.377,0 2.656,-0.182 3.836,-0.546c1.18,-0.365 2.23,-0.899 3.148,-1.604c0.919,-0.705 1.683,-1.564 2.293,-2.578c0.609,-1.013 1.033,-2.169 1.271,-3.468l10.405,0.047c-0.269,2.234 -0.938,4.384 -2.007,6.451c-1.069,2.066 -2.503,3.912 -4.3,5.535c-1.798,1.623 -3.936,2.906 -6.415,3.849c-2.478,0.942 -5.278,1.413 -8.398,1.413c-4.339,0 -8.216,-0.982 -11.629,-2.946c-3.413,-1.964 -6.105,-4.807 -8.077,-8.529c-1.972,-3.722 -2.958,-8.227 -2.958,-13.517c0,-5.306 0.998,-9.82 2.993,-13.542c1.996,-3.722 4.704,-6.561 8.125,-8.517c3.421,-1.956 7.27,-2.934 11.546,-2.934c2.819,0 5.437,0.396 7.852,1.188c2.415,0.792 4.557,1.944 6.426,3.457c1.869,1.512 3.394,3.361 4.574,5.547c1.179,2.186 1.936,4.688 2.268,7.507Z" style="fill:#222;fill-rule:nonzero;"/><path d="M101.026,50.263l-11.023,0l16.796,-48.655l13.257,0l16.772,48.655l-11.023,0l-12.187,-37.537l-0.381,0l-12.211,37.537Zm-0.689,-19.125l26.038,0l0,8.03l-26.038,0l0,-8.03Z" style="fill:#222;fill-rule:nonzero;"/><path d="M222.393,1.608l0,48.655l-8.885,0l-21.167,-30.623l-0.357,0l0,30.623l-10.287,0l0,-48.655l9.028,0l21.001,30.599l0.428,0l0,-30.599l10.239,0Z" style="fill:#222;fill-rule:nonzero;"/><path d="M280.06,1.608l11.76,36.966l0.451,0l11.784,-36.966l11.403,0l-16.773,48.655l-13.256,0l-16.796,-48.655l11.427,0Z" style="fill:#222;fill-rule:nonzero;"/><path d="M369.656,50.263l-11.023,0l16.796,-48.655l13.256,0l16.773,48.655l-11.023,0l-12.188,-37.537l-0.38,0l-12.211,37.537Zm-0.689,-19.125l26.038,0l0,8.03l-26.038,0l0,-8.03Z" style="fill:#222;fill-rule:nonzero;"/><path d="M365.938,140.95l0,-48.654l32.215,0l0,8.481l-21.928,0l0,11.593l19.79,0l0,8.482l-19.79,0l0,20.098l-10.287,0Z" style="fill:#222;fill-rule:nonzero;"/><path d="M447.045,92.296l12.687,0l12.028,32.689l0.57,0l12.029,-32.689l12.686,0l0,48.654l-9.978,0l0,-31.668l-0.404,0l-11.22,31.431l-6.795,0l-11.221,-31.55l-0.404,0l0,31.787l-9.978,0l0,-48.654Z" style="fill:#222;fill-rule:nonzero;"/><path d="M480.721,15.608c-0.19,-1.916 -1.006,-3.405 -2.447,-4.466c-1.442,-1.061 -3.398,-1.592 -5.868,-1.592c-1.679,0 -3.097,0.234 -4.253,0.701c-1.156,0.467 -2.039,1.113 -2.649,1.936c-0.609,0.824 -0.914,1.758 -0.914,2.804c-0.032,0.871 0.154,1.631 0.558,2.28c0.404,0.65 0.962,1.208 1.675,1.675c0.713,0.467 1.536,0.871 2.471,1.212c0.934,0.34 1.932,0.629 2.993,0.867l4.371,1.045c2.123,0.475 4.071,1.109 5.845,1.901c1.773,0.792 3.31,1.766 4.608,2.922c1.299,1.156 2.309,2.518 3.029,4.086c0.721,1.568 1.089,3.366 1.105,5.393c-0.016,2.978 -0.772,5.555 -2.269,7.733c-1.496,2.178 -3.65,3.864 -6.462,5.06c-2.811,1.196 -6.196,1.794 -10.156,1.794c-3.928,0 -7.345,-0.602 -10.251,-1.806c-2.906,-1.203 -5.171,-2.989 -6.795,-5.357c-1.623,-2.368 -2.474,-5.302 -2.553,-8.802l9.954,0c0.111,1.631 0.582,2.99 1.413,4.074c0.832,1.085 1.948,1.901 3.35,2.447c1.402,0.547 2.99,0.82 4.763,0.82c1.743,0 3.259,-0.253 4.55,-0.76c1.291,-0.507 2.292,-1.212 3.005,-2.115c0.713,-0.902 1.069,-1.94 1.069,-3.112c0,-1.093 -0.32,-2.011 -0.962,-2.756c-0.641,-0.744 -1.576,-1.377 -2.803,-1.9c-1.228,-0.523 -2.728,-0.998 -4.502,-1.426l-5.298,-1.33c-4.102,-0.998 -7.341,-2.558 -9.717,-4.68c-2.375,-2.122 -3.555,-4.981 -3.54,-8.576c-0.015,-2.946 0.773,-5.52 2.364,-7.721c1.592,-2.202 3.782,-3.92 6.569,-5.156c2.788,-1.235 5.955,-1.853 9.503,-1.853c3.611,0 6.767,0.618 9.467,1.853c2.701,1.236 4.803,2.954 6.308,5.156c1.504,2.201 2.28,4.751 2.328,7.649l-9.859,0Z" style="fill:#222;fill-rule:nonzero;"/></g></svg>