<?xml version="1.0" encoding="utf-8"?>
<!-- Generator: Adobe Illustrator 16.0.4, SVG Export Plug-In . SVG Version: 6.00 Build 0)  -->
<!DOCTYPE svg PUBLIC "-//W3C//DTD SVG 1.1//EN" "http://www.w3.org/Graphics/SVG/1.1/DTD/svg11.dtd">
<svg version="1.1" id="Ebene_1" xmlns="http://www.w3.org/2000/svg" xmlns:xlink="http://www.w3.org/1999/xlink" x="0px" y="0px"
	 width="85px" height="85px" viewBox="0 0 85 85" enable-background="new 0 0 85 85" xml:space="preserve">
<g>
	<circle cx="4.25" cy="4.25" r="4.25"/>
	<circle cx="19.55" cy="4.25" r="4.25"/>
	<circle cx="34.85" cy="4.25" r="4.25"/>
	<circle cx="50.15" cy="4.25" r="4.25"/>
	<circle cx="65.45" cy="4.25" r="4.25"/>
	<circle cx="80.75" cy="4.25" r="4.25"/>
	<circle cx="4.25" cy="80.75" r="4.25"/>
	<circle cx="19.55" cy="80.75" r="4.25"/>
	<circle cx="34.85" cy="80.75" r="4.25"/>
	<circle cx="50.15" cy="80.75" r="4.25"/>
	<circle cx="65.45" cy="80.75" r="4.25"/>
	<circle cx="80.75" cy="80.75" r="4.25"/>
	<circle cx="4.25" cy="65.45" r="4.25"/>
	<circle cx="19.55" cy="65.45" r="4.25"/>
	<circle cx="34.85" cy="65.45" r="4.25"/>
	<circle cx="50.15" cy="65.45" r="4.25"/>
	<circle cx="65.45" cy="65.45" r="4.25"/>
	<circle cx="80.75" cy="65.45" r="4.25"/>
	<circle cx="4.25" cy="50.15" r="4.25"/>
	<circle cx="19.55" cy="50.15" r="4.25"/>
	<circle cx="34.85" cy="50.15" r="4.25"/>
	<circle cx="50.15" cy="50.15" r="4.25"/>
	<circle cx="65.45" cy="50.15" r="4.25"/>
	<circle cx="80.75" cy="50.15" r="4.25"/>
	<circle cx="4.25" cy="34.85" r="4.25"/>
	<circle cx="19.55" cy="34.85" r="4.25"/>
	<circle cx="34.85" cy="34.85" r="4.25"/>
	<circle cx="50.15" cy="34.85" r="4.25"/>
	<circle cx="65.45" cy="34.85" r="4.25"/>
	<circle cx="80.75" cy="34.85" r="4.25"/>
	<circle cx="4.25" cy="19.55" r="4.25"/>
	<circle cx="19.55" cy="19.55" r="4.25"/>
	<circle cx="34.85" cy="19.55" r="4.25"/>
	<circle cx="50.15" cy="19.55" r="4.25"/>
	<circle cx="65.45" cy="19.55" r="4.25"/>
	<circle cx="80.75" cy="19.55" r="4.25"/>
</g>
</svg>
